<svg xmlns="http://www.w3.org/2000/svg" xmlns:xlink="http://www.w3.org/1999/xlink" width="169.887" height="37.958" viewBox="0 0 169.887 37.958">
  <defs>
    <clipPath id="clip-path">
      <rect id="Rectangle_2" data-name="Rectangle 2" width="169.887" height="37.958" fill="none"/>
    </clipPath>
  </defs>
  <g id="Group_1" data-name="Group 1" clip-path="url(#clip-path)">
    <path id="Path_1" data-name="Path 1" d="M.053,33.05c.186-1.136,1.736-9.708,1.736-9.708.929,1.237,1.793,2.36,2.044,2.669a1.92,1.92,0,0,0,2.644.039l7.535-6.406L5.87,9.721A6.044,6.044,0,0,1,10.809,0H36.251c-1.7,1.451-6.894,5.886-7.95,6.763a3.749,3.749,0,0,1-2.513.824H18.606a.95.95,0,0,0-.69,1.612L30.4,24.318a.952.952,0,0,0,1.648-.474L33.3,16.73a3.631,3.631,0,0,1,1.278-2.4c1.247-1.061,5.692-4.845,7.925-6.743l-4.473,25.4A6.15,6.15,0,0,1,27.451,35.9l-7.9-9.545S8.271,36,7.107,36.94A4.329,4.329,0,0,1,.053,33.05" transform="translate(0 0)" fill="#c00020"/>
    <path id="Path_2" data-name="Path 2" d="M122.378,11.078H118.4l-6.632,14.447,2.548-14.447h-4.028l-5.335,30.26h4.028l2.169-12.3,1.917,12.3h3.977l-2.138-13.9Zm-24.426,0a3.486,3.486,0,0,0-3.293,2.8L89.825,41.338h4.022l1.939-11,4.254-.935-2.1,11.937h3.982l5.334-30.26Zm2.762,14.5-4.249.935,2-11.351a.536.536,0,0,1,.509-.432h3.657Zm64.26-11.686a2.293,2.293,0,0,0-2.312-2.813h-9.3l-5.331,30.26h4.041l1.941-11,5.322-1.5a5.425,5.425,0,0,0,3.753-4.25Zm-5.966,10.966a.815.815,0,0,1-.547.656l-3.773.986L156.751,14.7h3.626a.354.354,0,0,1,.358.434Zm53.446-13.779h-6.544a3.48,3.48,0,0,0-3.288,2.8l-4.345,24.655a2.3,2.3,0,0,0,2.3,2.827h6.542a3.478,3.478,0,0,0,3.288-2.8l1.451-8.225h-3.977L206.641,37.3a.537.537,0,0,1-.506.433h-3.22a.353.353,0,0,1-.357-.433l3.9-22.1a.536.536,0,0,1,.507-.431h3.222a.351.351,0,0,1,.354.431l-1.076,6.113h3.992l1.3-7.43a2.283,2.283,0,0,0-2.3-2.8m2.016-4.268s-7.145.513-7.84.556a1.441,1.441,0,0,0-1.294,1.186l-.189,1.08h8.823ZM196.12,11.078l-5.333,30.26h4.028l5.336-30.26Zm-19.008,0h-6.542a3.477,3.477,0,0,0-3.288,2.8l-4.349,24.655a2.3,2.3,0,0,0,2.3,2.827h6.544a3.479,3.479,0,0,0,3.287-2.8l4.352-24.682a2.281,2.281,0,0,0-2.3-2.8M171.3,37.3a.536.536,0,0,1-.507.431h-3.219a.353.353,0,0,1-.357-.431l3.907-22.2a.539.539,0,0,1,.508-.431h3.221a.352.352,0,0,1,.355.431ZM133.656,24.552l1.885-10.7a2.285,2.285,0,0,0-2.3-2.8l-9.312.031-5.335,30.26h4.047l1.938-11,1.514-.351.623,11.353h4.107l-.813-12.562a5.311,5.311,0,0,0,3.65-4.225m-4.1.371a.753.753,0,0,1-.528.622l-3.772.953,2.07-11.746,3.589.016a.352.352,0,0,1,.355.432Zm11.555-13.845a3.486,3.486,0,0,0-3.292,2.8l-4.835,27.458H137l1.939-11,4.252-.934-2.1,11.93h3.983l5.335-30.26Zm2.764,14.5-4.249.935,2-11.351a.537.537,0,0,1,.507-.432h3.657Zm46.032-14.5-5.965,22.227,1.881-22.227H181.79l-1.609,30.26h4.692l9.009-30.26Z" transform="translate(-44.912 -3.405)" fill="#161615" fill-rule="evenodd"/>
  </g>
</svg>
