<svg xml:space="preserve" style="enable-background:new 0 0 595.3 106.7;" viewBox="0 0 595.3 106.7" y="0px" x="0px" xmlns:xlink="http://www.w3.org/1999/xlink" xmlns="http://www.w3.org/2000/svg" id="Layer_1" version="1.1">
<style type="text/css">
	.st0{fill:#FFFFFF;}
</style>
<g>
	<g>
		<path d="M115.2,40.4h9.9V44c3.2-2.7,7.8-4.1,14-4.1c6.6,0,11.6,1.5,14.6,4.6c3.6-3.1,8.9-4.6,15.2-4.6
			c12.4,0,19.7,4.8,19.7,13.8v15.9h-10.3V55.5c0-4.7-3.4-6.7-10.7-6.7c-7.2,0-10.5,2-10.5,6.3v14.5h-10.3V55.5
			c0-4.7-3.4-6.7-10.7-6.7c-7.2,0-10.5,2-10.5,6.3v14.5h-10.3V40.4H115.2z" class="st0"></path>
		<path d="M198.7,67.2c-4-2.3-6.5-6-6.5-12.2s2.5-9.9,6.5-12.2c3.6-2.2,8.3-3.1,17.2-3.1s13.6,0.9,17.3,3.1
			c3.9,2.3,6.5,5.9,6.5,12.2c0,6.1-2.5,9.8-6.5,12.2c-3.6,2.2-8.3,3.1-17.2,3.1S202.3,69.4,198.7,67.2z M205.8,60.2
			c1.8,0.8,4.1,1.2,10.1,1.2s8.4-0.3,10.1-1.2c2.1-1,3-2.4,3-5.2c0-2.6-0.9-4.1-3-5.1c-1.7-0.9-4.1-1.2-10.1-1.2s-8.4,0.4-10.1,1.2
			c-2.1,1-3,2.4-3,5.2C202.9,57.7,203.7,59.2,205.8,60.2z" class="st0"></path>
		<path d="M243.4,56.3v-6.8v-9.1V33h10.3v7.4h14v9.1h-14v5.7c0,4.1,1.6,5.4,6.6,5.4h9.4v9.1H259
			C248.3,69.6,243.4,65.8,243.4,56.3z" class="st0"></path>
		<path d="M278.2,67.2c-4-2.3-6.5-6-6.5-12.2s2.5-9.9,6.5-12.2c3.6-2.2,8.3-3.1,17.2-3.1c8.9,0,13.6,0.9,17.3,3.1
			c3.9,2.3,6.5,5.9,6.5,12.2c0,6.1-2.5,9.8-6.5,12.2c-3.6,2.2-8.3,3.1-17.2,3.1S281.8,69.4,278.2,67.2z M285.3,60.2
			c1.8,0.8,4.1,1.2,10.1,1.2s8.4-0.3,10.1-1.2c2.1-1,3-2.4,3-5.2c0-2.6-0.9-4.1-3-5.1c-1.7-0.9-4.1-1.2-10.1-1.2s-8.4,0.4-10.1,1.2
			c-2.1,1-3,2.4-3,5.2C282.3,57.7,283.2,59.2,285.3,60.2z" class="st0"></path>
		<path d="M451.7,69.6v-3.1c-0.8,0.7-1.8,1.3-2.9,1.8c-3,1.5-6.9,2-12,2c-7.1,0-11.8-1-15-3c-4-2.3-6.2-6.1-6.2-12.3
			c0-6.1,2.2-9.9,6.2-12.3c3.2-2,7.8-3,15-3c5,0,8.8,0.5,11.7,1.8c1.1,0.5,2.1,1.1,3,1.8v-15h10.3v41.3H451.7z M428.9,60.2
			c1.8,0.9,4.1,1.3,9.9,1.3s8.1-0.3,9.9-1.2c1.9-0.9,2.8-2.4,2.8-5.2s-0.9-4.2-2.8-5.2c-1.8-0.9-4-1.3-9.9-1.3
			c-5.8,0-8.1,0.3-9.9,1.3c-1.9,0.9-2.7,2.4-2.7,5.2C426.2,57.7,427,59.2,428.9,60.2z" class="st0"></path>
		<path d="M563.6,56.3v-6.8v-9.1V33h10.3v7.4h14v9.1h-14v5.7c0,4.1,1.6,5.4,6.6,5.4h9.4v9.1h-10.7
			C568.5,69.6,563.6,65.8,563.6,56.3z" class="st0"></path>
		<path d="M401.2,40.5c-2.6-0.5-6-0.7-10.5-0.7c-3.4,0-6.6,0.2-9.5,0.5c-2.2,0.2-4,0.5-5.8,0.8v8.2
			c2.2-0.4,4.5-0.7,6.5-0.9c2.5-0.2,6-0.4,8.4-0.4c2.8,0,5.3,0.1,6.8,0.4c3.7,0.5,4.8,1.7,4.8,3.4h-11.4c-15,0-20.3,2.3-20.3,9.1
			c0,6.6,5.1,9.5,16.5,9.5c7.9,0,12.7-1.3,15.4-3.8v3.1h9.9V50.9C412,45.3,408.9,41.7,401.2,40.5z M401.9,59.8c-0.7,2.1-5,3-14.5,3
			c-4.2,0-6.9-0.5-6.9-2.4c0-1.8,2.3-2.3,10.6-2.3h10.8V59.8z" class="st0"></path>
		<path d="M501,40.4v3.1c-2.8-2.3-6.6-3.8-14.7-3.8c-6.7,0-11.4,0.9-14.7,2.9c-3.9,2.3-6.1,6-6.1,12
			c0,5.9,2.1,9.7,6.1,12c3.2,2,7.8,2.9,14.8,2.9c7.8,0,11.7-1.3,14.5-3.6v2.2c0,2.2-1.5,3.7-5,4.5c-2.1,0.6-4.7,0.8-8.1,0.8
			c-3,0-6.2-0.2-9.1-0.6c-2.5-0.3-5.1-0.7-7.4-1.1v9c1.8,0.3,3.7,0.6,5.8,0.8c3.4,0.4,6.9,0.6,10.7,0.6c6.3,0,11.1-0.7,14.8-2.1
			c6-2.2,8.6-6.2,8.6-12.5V40.4H501z M500.8,55.4c-0.2,2.1-1,3.3-2.7,4.1c-1.8,0.9-4,1.2-9.7,1.2s-7.8-0.3-9.6-1.2
			c-1.9-0.9-2.7-2.4-2.7-4.9s0.8-4,2.7-4.9c1.7-0.9,3.9-1.2,9.6-1.2c5.8,0,8,0.3,9.8,1.2c1.7,0.8,2.5,2,2.7,4.1L500.8,55.4
			L500.8,55.4z" class="st0"></path>
		<path d="M356.8,40.4v3.1c-2.8-2.3-6.6-3.8-14.7-3.8c-6.7,0-11.4,0.9-14.7,2.9c-3.9,2.3-6.1,6-6.1,12
			c0,5.9,2.1,9.7,6.1,12c3.2,2,7.8,2.9,14.8,2.9c7.8,0,11.7-1.3,14.5-3.6v2.2c0,2.2-1.5,3.7-5,4.5c-2.1,0.6-4.7,0.8-8.1,0.8
			c-3,0-6.2-0.2-9.1-0.6c-2.5-0.3-5.1-0.7-7.4-1.1v9c1.8,0.3,3.7,0.6,5.8,0.8c3.4,0.4,6.9,0.6,10.7,0.6c6.3,0,11.1-0.7,14.8-2.1
			c6-2.2,8.6-6.2,8.6-12.5V40.4H356.8z M356.6,55.4c-0.2,2.1-1,3.3-2.7,4.1c-1.8,0.9-4,1.2-9.7,1.2s-7.8-0.3-9.6-1.2
			c-1.9-0.9-2.7-2.4-2.7-4.9s0.8-4,2.7-4.9c1.7-0.9,3.9-1.2,9.6-1.2c5.8,0,8,0.3,9.8,1.2c1.7,0.8,2.5,2,2.7,4.1L356.6,55.4
			L356.6,55.4z" class="st0"></path>
		<path d="M555.5,60.1c-2.2,0.7-4.9,1.3-7.6,1.6c-3,0.4-6.5,0.6-9.7,0.6c-4.2,0-7.7-0.3-9.7-1.1
			c-1.4-0.6-2.3-1.4-2.7-3.1h29.8h3.8v-2.9c0-6-2.4-9.9-6.6-12.3c-3.7-2.2-9.3-3.2-15.5-3.2c-6.4,0-12.1,1-15.8,3.2
			c-4.1,2.4-6.5,6.2-6.5,12c0,6.1,2.5,10.1,6.5,12.3c3.8,2.2,9.4,3.1,16.4,3.1c4.3,0,8.4-0.3,11.9-0.8c2.2-0.3,4.1-0.8,5.9-1.3v-8.1
			H555.5z M528,48.9c1.7-0.8,5-1.2,8.8-1.2c3.9,0,7.4,0.4,9.1,1.2c1.2,0.6,1.9,1.4,2.3,2.8h-22.6C526.1,50.3,526.8,49.5,528,48.9z" class="st0"></path>
	</g>
	<path d="M87.9,48.2L71.8,20.3c-1.8-3.2-5.2-5.1-8.9-5.1H30.6c-3.7,0-7.1,2-8.9,5.1L5.6,48.2c-1.8,3.2-1.8,7.1,0,10.3
		l16.1,27.9c1.8,3.2,5.2,5.1,8.9,5.1h32.3c3.7,0,7.1-2,8.9-5.1l16.1-27.9C89.7,55.3,89.7,51.4,87.9,48.2z M69.7,55l-7.4,12.8
		c-1.5,2.6-5.2,2.6-6.7,0l-7.5-13c-0.7-1.2-2-1.9-3.3-1.9h-15c-3,0-4.8-3.2-3.3-5.8l7.4-12.8c0.7-1.2,2-1.9,3.3-1.9h19.4
		c1.4,0,2.6,0.7,3.3,1.9l9.7,16.8C70.4,52.3,70.4,53.8,69.7,55z" class="st0"></path>
</g>
</svg>
